<mxfile host="65bd71144e">
    <diagram id="XyvlHFDLuQb4Arq-bPFX" name="Страница 1">
        <mxGraphModel dx="2301" dy="911" grid="1" gridSize="10" guides="1" tooltips="1" connect="1" arrows="1" fold="1" page="1" pageScale="1" pageWidth="827" pageHeight="1169" math="0" shadow="0">
            <root>
                <mxCell id="0"/>
                <mxCell id="1" parent="0"/>
                <mxCell id="9" style="edgeStyle=none;html=1;entryX=0.5;entryY=0;entryDx=0;entryDy=0;" parent="1" source="2" target="3" edge="1">
                    <mxGeometry relative="1" as="geometry"/>
                </mxCell>
                <mxCell id="2" value="Начало" style="ellipse;whiteSpace=wrap;html=1;" parent="1" vertex="1">
                    <mxGeometry x="100" y="40" width="120" height="40" as="geometry"/>
                </mxCell>
                <mxCell id="10" style="edgeStyle=none;html=1;entryX=0.5;entryY=0;entryDx=0;entryDy=0;" parent="1" source="3" target="5" edge="1">
                    <mxGeometry relative="1" as="geometry"/>
                </mxCell>
                <mxCell id="3" value="ввод: N" style="shape=parallelogram;perimeter=parallelogramPerimeter;whiteSpace=wrap;html=1;fixedSize=1;" parent="1" vertex="1">
                    <mxGeometry x="100" y="140" width="120" height="60" as="geometry"/>
                </mxCell>
                <mxCell id="6" style="edgeStyle=none;html=1;" parent="1" source="4" target="7" edge="1">
                    <mxGeometry relative="1" as="geometry">
                        <mxPoint x="160" y="440" as="targetPoint"/>
                        <Array as="points">
                            <mxPoint x="150" y="410"/>
                        </Array>
                    </mxGeometry>
                </mxCell>
                <mxCell id="12" style="edgeStyle=none;html=1;startArrow=none;exitX=1;exitY=0.5;exitDx=0;exitDy=0;" parent="1" source="4" edge="1">
                    <mxGeometry relative="1" as="geometry">
                        <mxPoint x="160" y="540" as="targetPoint"/>
                        <mxPoint x="210" y="315" as="sourcePoint"/>
                        <Array as="points">
                            <mxPoint x="230" y="340"/>
                            <mxPoint x="160" y="520"/>
                        </Array>
                    </mxGeometry>
                </mxCell>
                <mxCell id="4" value="N&amp;gt;0" style="rhombus;whiteSpace=wrap;html=1;" parent="1" vertex="1">
                    <mxGeometry x="120" y="300" width="80" height="80" as="geometry"/>
                </mxCell>
                <mxCell id="11" style="edgeStyle=none;html=1;" parent="1" source="5" target="4" edge="1">
                    <mxGeometry relative="1" as="geometry"/>
                </mxCell>
                <mxCell id="5" value="arr [N];&lt;br&gt;i=0;&lt;br&gt;summ =0;" style="rounded=0;whiteSpace=wrap;html=1;" parent="1" vertex="1">
                    <mxGeometry x="100" y="220" width="120" height="60" as="geometry"/>
                </mxCell>
                <mxCell id="8" style="edgeStyle=none;html=1;exitX=0;exitY=0.5;exitDx=0;exitDy=0;entryX=0;entryY=0.5;entryDx=0;entryDy=0;" parent="1" source="7" target="4" edge="1">
                    <mxGeometry relative="1" as="geometry">
                        <Array as="points">
                            <mxPoint y="460"/>
                            <mxPoint y="340"/>
                        </Array>
                    </mxGeometry>
                </mxCell>
                <mxCell id="7" value="arr(i) = N % 10;&lt;br&gt;N=N/10;&lt;br&gt;i+=1" style="rounded=1;whiteSpace=wrap;html=1;" parent="1" vertex="1">
                    <mxGeometry x="30" y="430" width="120" height="60" as="geometry"/>
                </mxCell>
                <mxCell id="13" value="да" style="text;html=1;strokeColor=none;fillColor=none;align=center;verticalAlign=middle;whiteSpace=wrap;rounded=0;" parent="1" vertex="1">
                    <mxGeometry x="90" y="380" width="60" height="30" as="geometry"/>
                </mxCell>
                <mxCell id="17" value="нет" style="text;html=1;strokeColor=none;fillColor=none;align=center;verticalAlign=middle;whiteSpace=wrap;rounded=0;" parent="1" vertex="1">
                    <mxGeometry x="200" y="300" width="60" height="30" as="geometry"/>
                </mxCell>
                <mxCell id="20" style="edgeStyle=none;html=1;entryX=0.5;entryY=0;entryDx=0;entryDy=0;" parent="1" source="18" target="19" edge="1">
                    <mxGeometry relative="1" as="geometry"/>
                </mxCell>
                <mxCell id="18" value="i=0" style="rounded=1;whiteSpace=wrap;html=1;" parent="1" vertex="1">
                    <mxGeometry x="110" y="540" width="120" height="60" as="geometry"/>
                </mxCell>
                <mxCell id="21" style="edgeStyle=none;html=1;" parent="1" source="19" edge="1">
                    <mxGeometry relative="1" as="geometry">
                        <mxPoint x="160" y="740" as="targetPoint"/>
                    </mxGeometry>
                </mxCell>
                <mxCell id="24" style="edgeStyle=none;html=1;" parent="1" source="19" edge="1">
                    <mxGeometry relative="1" as="geometry">
                        <mxPoint x="160" y="860" as="targetPoint"/>
                        <Array as="points">
                            <mxPoint x="240" y="670"/>
                            <mxPoint x="240" y="830"/>
                            <mxPoint x="160" y="830"/>
                        </Array>
                    </mxGeometry>
                </mxCell>
                <mxCell id="19" value="i&amp;lt;arr.Length" style="rhombus;whiteSpace=wrap;html=1;" parent="1" vertex="1">
                    <mxGeometry x="120" y="630" width="80" height="80" as="geometry"/>
                </mxCell>
                <mxCell id="23" style="edgeStyle=none;html=1;entryX=0;entryY=0.5;entryDx=0;entryDy=0;" parent="1" source="22" target="19" edge="1">
                    <mxGeometry relative="1" as="geometry">
                        <mxPoint x="110" y="680" as="targetPoint"/>
                        <Array as="points">
                            <mxPoint x="30" y="770"/>
                            <mxPoint x="30" y="670"/>
                        </Array>
                    </mxGeometry>
                </mxCell>
                <mxCell id="22" value="summ +=arr[i];&lt;br&gt;i+=1;" style="rounded=1;whiteSpace=wrap;html=1;" parent="1" vertex="1">
                    <mxGeometry x="100" y="740" width="120" height="60" as="geometry"/>
                </mxCell>
                <mxCell id="25" value="да" style="text;html=1;strokeColor=none;fillColor=none;align=center;verticalAlign=middle;whiteSpace=wrap;rounded=0;" parent="1" vertex="1">
                    <mxGeometry x="100" y="700" width="60" height="30" as="geometry"/>
                </mxCell>
                <mxCell id="26" value="нет" style="text;html=1;strokeColor=none;fillColor=none;align=center;verticalAlign=middle;whiteSpace=wrap;rounded=0;" parent="1" vertex="1">
                    <mxGeometry x="200" y="640" width="60" height="30" as="geometry"/>
                </mxCell>
                <mxCell id="27" value="вывод: summ" style="shape=document;whiteSpace=wrap;html=1;boundedLbl=1;" parent="1" vertex="1">
                    <mxGeometry x="100" y="860" width="120" height="80" as="geometry"/>
                </mxCell>
            </root>
        </mxGraphModel>
    </diagram>
</mxfile>